<?xml version="1.0" encoding="UTF-8"?>
<svg xmlns="http://www.w3.org/2000/svg" xmlns:xlink="http://www.w3.org/1999/xlink" width="40px" height="40px" viewBox="0 0 40 40" version="1.1">
<g id="surface1">
<path style=" stroke:none;fill-rule:nonzero;fill:rgb(23.529412%,87.058824%,73.72549%);fill-opacity:1;" d="M 20 4 C 11.160156 4 4 11.160156 4 20 C 4 23 4.84375 25.800781 6.28125 28.199219 L 4.140625 36 L 12.109375 33.90625 C 14.4375 35.234375 17.128906 36 20 36 C 28.839844 36 36 28.839844 36 20 C 36 11.160156 28.839844 4 20 4 Z M 14.519531 12.535156 C 14.78125 12.535156 15.050781 12.535156 15.28125 12.546875 C 15.566406 12.550781 15.875 12.574219 16.171875 13.230469 C 16.527344 14.015625 17.296875 15.972656 17.394531 16.171875 C 17.496094 16.371094 17.5625 16.605469 17.425781 16.863281 C 17.296875 17.128906 17.230469 17.292969 17.035156 17.527344 C 16.839844 17.761719 16.621094 18.042969 16.4375 18.214844 C 16.238281 18.417969 16.035156 18.628906 16.265625 19.027344 C 16.496094 19.425781 17.292969 20.722656 18.46875 21.769531 C 19.984375 23.125 21.261719 23.535156 21.65625 23.734375 C 22.050781 23.9375 22.28125 23.90625 22.511719 23.636719 C 22.75 23.378906 23.503906 22.484375 23.769531 22.089844 C 24.03125 21.691406 24.296875 21.761719 24.65625 21.890625 C 25.019531 22.019531 26.96875 22.980469 27.363281 23.175781 C 27.765625 23.378906 28.027344 23.480469 28.125 23.636719 C 28.230469 23.800781 28.230469 24.597656 27.894531 25.519531 C 27.566406 26.449219 25.953125 27.339844 25.222656 27.402344 C 24.496094 27.472656 23.8125 27.734375 20.46875 26.417969 C 16.4375 24.828125 13.894531 20.699219 13.691406 20.433594 C 13.496094 20.171875 12.078125 18.285156 12.078125 16.339844 C 12.078125 14.386719 13.105469 13.425781 13.464844 13.03125 C 13.828125 12.636719 14.253906 12.535156 14.519531 12.535156 Z M 14.519531 12.535156 "/>
</g>
</svg>
