<?xml version="1.0" encoding="UTF-8"?>
<svg xmlns="http://www.w3.org/2000/svg" xmlns:xlink="http://www.w3.org/1999/xlink" width="40px" height="40px" viewBox="0 0 40 40" version="1.1">
<g id="surface1">
<path style=" stroke:none;fill-rule:evenodd;fill:rgb(23.529412%,87.058824%,73.72549%);fill-opacity:1;" d="M 9.089844 5 L 30.910156 5 C 33.171875 5 35 6.828125 35 9.089844 L 35 30.910156 C 35 33.171875 33.171875 35 30.910156 35 L 9.089844 35 C 6.828125 35 5 33.171875 5 30.910156 L 5 9.089844 C 5 6.828125 6.828125 5 9.089844 5 Z M 9.089844 5 "/>
<path style=" stroke:none;fill-rule:evenodd;fill:rgb(91.372549%,68.235294%,76.078431%);fill-opacity:1;" d="M 24.339844 17.171875 C 25.652344 18.109375 27.261719 18.660156 29 18.660156 L 29 15.316406 C 28.671875 15.316406 28.34375 15.285156 28.019531 15.21875 L 28.019531 17.847656 C 26.285156 17.847656 24.675781 17.296875 23.359375 16.359375 L 23.359375 23.175781 C 23.359375 26.589844 20.59375 29.355469 17.183594 29.355469 C 15.90625 29.355469 14.722656 28.96875 13.738281 28.3125 C 14.863281 29.457031 16.425781 30.167969 18.160156 30.167969 C 21.574219 30.167969 24.339844 27.402344 24.339844 23.988281 Z M 25.546875 13.800781 C 24.875 13.066406 24.4375 12.121094 24.339844 11.074219 L 24.339844 10.644531 L 23.410156 10.644531 C 23.644531 11.972656 24.441406 13.109375 25.546875 13.800781 Z M 15.902344 25.691406 C 15.527344 25.203125 15.324219 24.597656 15.324219 23.984375 C 15.324219 22.421875 16.589844 21.15625 18.152344 21.15625 C 18.441406 21.15625 18.730469 21.203125 19.003906 21.292969 L 19.003906 17.875 C 18.683594 17.828125 18.355469 17.808594 18.03125 17.816406 L 18.03125 20.472656 C 17.75 20.386719 17.464844 20.34375 17.171875 20.34375 C 15.609375 20.34375 14.34375 21.609375 14.34375 23.167969 C 14.34375 24.269531 14.980469 25.230469 15.902344 25.691406 Z M 15.902344 25.691406 "/>
<path style=" stroke:none;fill-rule:evenodd;fill:rgb(100%,100%,100%);fill-opacity:1;" d="M 23.359375 16.359375 C 24.675781 17.296875 26.285156 17.847656 28.019531 17.847656 L 28.019531 15.21875 C 27.050781 15.011719 26.191406 14.503906 25.546875 13.800781 C 24.441406 13.109375 23.644531 11.972656 23.410156 10.644531 L 20.980469 10.644531 L 20.980469 23.988281 C 20.972656 25.546875 19.707031 26.808594 18.152344 26.808594 C 17.230469 26.808594 16.417969 26.371094 15.902344 25.691406 C 14.980469 25.230469 14.34375 24.269531 14.34375 23.167969 C 14.34375 21.609375 15.609375 20.34375 17.171875 20.34375 C 17.46875 20.34375 17.761719 20.390625 18.03125 20.472656 L 18.03125 17.816406 C 14.675781 17.886719 11.980469 20.625 11.980469 23.996094 C 11.980469 25.671875 12.652344 27.199219 13.738281 28.3125 C 14.722656 28.972656 15.910156 29.355469 17.183594 29.355469 C 20.59375 29.355469 23.363281 26.589844 23.363281 23.175781 Z M 23.359375 16.359375 "/>
<path style=" stroke:none;fill-rule:evenodd;fill:rgb(87.843137%,96.078431%,100%);fill-opacity:1;" d="M 28.019531 15.21875 L 28.019531 14.503906 C 27.144531 14.511719 26.292969 14.265625 25.546875 13.800781 C 26.203125 14.519531 27.066406 15.015625 28.019531 15.21875 Z M 23.410156 10.644531 C 23.390625 10.515625 23.375 10.390625 23.359375 10.261719 L 23.359375 9.828125 L 20 9.828125 L 20 23.175781 C 19.996094 24.734375 18.730469 25.996094 17.171875 25.996094 C 16.714844 25.996094 16.28125 25.886719 15.902344 25.691406 C 16.417969 26.371094 17.230469 26.808594 18.152344 26.808594 C 19.707031 26.808594 20.972656 25.546875 20.980469 23.988281 L 20.980469 10.644531 Z M 18.03125 17.816406 L 18.03125 17.058594 C 17.75 17.019531 17.464844 17 17.183594 17 C 13.765625 17 11 19.765625 11 23.175781 C 11 25.316406 12.089844 27.203125 13.738281 28.3125 C 12.652344 27.199219 11.980469 25.671875 11.980469 23.996094 C 11.980469 20.625 14.675781 17.886719 18.03125 17.816406 Z M 18.03125 17.816406 "/>
</g>
</svg>
