<?xml version="1.0" encoding="UTF-8"?>
<svg xmlns="http://www.w3.org/2000/svg" xmlns:xlink="http://www.w3.org/1999/xlink" width="40px" height="40px" viewBox="0 0 40 40" version="1.1">
<g id="surface1">
<path style=" stroke:none;fill-rule:nonzero;fill:rgb(23.529412%,87.058824%,73.72549%);fill-opacity:1;" d="M 13.328125 4 C 8.1875 4 4 8.1875 4 13.332031 L 4 26.667969 C 4 31.8125 8.1875 36 13.332031 36 L 26.667969 36 C 31.8125 36 36 31.8125 36 26.660156 L 36 13.328125 C 36 8.1875 31.8125 4 26.660156 4 Z M 29.332031 9.332031 C 30.066406 9.332031 30.667969 9.933594 30.667969 10.667969 C 30.667969 11.402344 30.066406 12 29.332031 12 C 28.597656 12 28 11.402344 28 10.667969 C 28 9.933594 28.597656 9.332031 29.332031 9.332031 Z M 20 12 C 24.410156 12 28 15.589844 28 20 C 28 24.410156 24.410156 28 20 28 C 15.589844 28 12 24.410156 12 20 C 12 15.589844 15.589844 12 20 12 Z M 20 14.667969 C 17.050781 14.667969 14.667969 17.050781 14.667969 20 C 14.667969 22.949219 17.050781 25.332031 20 25.332031 C 22.949219 25.332031 25.332031 22.949219 25.332031 20 C 25.332031 17.050781 22.949219 14.667969 20 14.667969 Z M 20 14.667969 "/>
</g>
</svg>
