<?xml version="1.0" encoding="UTF-8"?>
<svg xmlns="http://www.w3.org/2000/svg" xmlns:xlink="http://www.w3.org/1999/xlink" width="40px" height="40px" viewBox="0 0 40 40" version="1.1">
<g id="surface1">
<path style=" stroke:none;fill-rule:nonzero;fill:rgb(23.529412%,87.058824%,73.72549%);fill-opacity:1;" d="M 20 4 C 11.160156 4 4 11.160156 4 20 C 4 28.019531 9.910156 34.644531 17.609375 35.800781 L 17.609375 24.238281 L 13.652344 24.238281 L 13.652344 20.035156 L 17.609375 20.035156 L 17.609375 17.234375 C 17.609375 12.605469 19.863281 10.566406 23.714844 10.566406 C 25.5625 10.566406 26.535156 10.707031 26.996094 10.765625 L 26.996094 14.4375 L 24.371094 14.4375 C 22.734375 14.4375 22.167969 15.988281 22.167969 17.734375 L 22.167969 20.035156 L 26.957031 20.035156 L 26.308594 24.238281 L 22.167969 24.238281 L 22.167969 35.839844 C 29.972656 34.777344 36 28.097656 36 20 C 36 11.160156 28.839844 4 20 4 Z M 20 4 "/>
</g>
</svg>
